<svg xmlns="http://www.w3.org/2000/svg" viewBox="0 0 297.38 100"><defs><style>.cls-1{fill:#33709f;}.cls-2{fill:#fff;}</style></defs><g id="图层_2" data-name="图层 2"><g id="图层_1-2" data-name="图层 1"><circle class="cls-1" cx="50" cy="50" r="50" transform="translate(-7.36 91.35) rotate(-80.78)"/><path class="cls-2" d="M93.67,50.21a1.43,1.43,0,0,0-1.48,1.37A42.11,42.11,0,0,1,80.4,79.3a1.42,1.42,0,0,0,1,2.42,1.41,1.41,0,0,0,1-.43,45,45,0,0,0,12.6-29.6A1.43,1.43,0,0,0,93.67,50.21Z"/><path class="cls-2" d="M43.65,5.36a1.43,1.43,0,0,0-1.43,1.43V93.17a1.43,1.43,0,1,0,2.85,0V6.79A1.42,1.42,0,0,0,43.65,5.36Z"/><path class="cls-2" d="M37,6.88a1.33,1.33,0,0,0-.63.15,45.38,45.38,0,0,0-22.49,16A45.17,45.17,0,0,0,6.35,61.3a1.42,1.42,0,0,0,1.38,1.07,1.12,1.12,0,0,0,.36,0,1.42,1.42,0,0,0,1-1.74A42.61,42.61,0,0,1,7.78,50,42.11,42.11,0,0,1,19,21.32,133.23,133.23,0,0,1,20.51,43.5h-7.3a1.43,1.43,0,0,0,0,2.86h7.21c-.48,9.78-2.48,20.09-7.9,27a1.42,1.42,0,0,0,.25,2,1.37,1.37,0,0,0,.87.3,1.42,1.42,0,0,0,1.13-.54c5.91-7.55,8.06-18.51,8.56-28.78H35.55V91.7a1.43,1.43,0,0,0,2.86,0V8.3A1.42,1.42,0,0,0,37,6.88ZM23.42,43.5a130.36,130.36,0,0,0-2-24.65,42.07,42.07,0,0,1,14.12-8.53V43.5Z"/><path class="cls-2" d="M85.63,46.3h.14l.2,0,.08,0,.17-.08.09,0,.13-.1.09-.07.1-.11a.39.39,0,0,0,.08-.1.41.41,0,0,0,.07-.11.83.83,0,0,0,.07-.13.36.36,0,0,0,0-.11.75.75,0,0,0,0-.16s0-.06,0-.1,0-.12,0-.19v0s0,0,0-.06v-.13A38.76,38.76,0,0,0,74.84,21.51a1.42,1.42,0,0,0-1.22-.7H59l6.37-10.14A42.25,42.25,0,0,1,91.93,45h0V45s0,0,0,0v0a1.44,1.44,0,0,0,1.42,1.27h.17a1.43,1.43,0,0,0,1.25-1.58v-.1s0,0,0,0h0A45.11,45.11,0,0,0,50.33,4.92h0a1.43,1.43,0,0,0-1.43,1.42s0,.11,0,.16V93.67a1.43,1.43,0,1,0,2.86,0V7.82A41.88,41.88,0,0,1,62.58,9.71L55.31,21.29a1.43,1.43,0,0,0-.21.87V44.88a1.42,1.42,0,0,0,1.42,1.43H85.63ZM58,34.72H81.06a35.93,35.93,0,0,1,2.82,8.73H58Zm21.6-2.86H58V23.67H73A35.89,35.89,0,0,1,79.55,31.86Z"/><path class="cls-2" d="M72.75,50.2a1.43,1.43,0,0,0-1.43,1.43V87.25a1.43,1.43,0,0,0,2.86,0V51.63A1.43,1.43,0,0,0,72.75,50.2Z"/><path class="cls-2" d="M60.85,50.2a1.43,1.43,0,0,0-1.43,1.43V92.28a1.43,1.43,0,1,0,2.86,0V51.63A1.43,1.43,0,0,0,60.85,50.2Z"/><path class="cls-1" d="M121.53,60.26V54.74a10,10,0,0,0,6.38-2.42,9.08,9.08,0,0,0,2.39-3.25,14.85,14.85,0,0,0,.77-5.38v-5.9h-9.54V32.23h9.54V15.93h-9V10.47h53.75v5.46h-8.33v16.3h8.72v5.56h-8.72V60.26h-5.55V37.79h-25.4V43.1a23.55,23.55,0,0,1-1,7.56A14.35,14.35,0,0,1,130.83,57,14.88,14.88,0,0,1,121.53,60.26Zm15-28h25.4V15.93h-25.4Z"/><path class="cls-1" d="M181.89,16.67V11.21h11.88v5.46Zm0,20.29V31.58h11.88V37Zm0,22.8V54.3h11.88v5.46Zm13.35.74V55h.27a1.85,1.85,0,0,0,1.56-.57c.46-.53.68-2.07.68-4.63V18.59q0-3.75,1.63-5.64a7.39,7.39,0,0,1,5.88-2.69h31v5.46H207.38a4.52,4.52,0,0,0-3.25,1,4.93,4.93,0,0,0-.91,3.43V50.22Q203.22,60,195.24,60.5Zm10.37.15V55a1.3,1.3,0,0,0,1.21-.88q.21-.57,1.09-8.8l.09-.86h5.44l-.21,2.13A88.17,88.17,0,0,1,212,56a5.75,5.75,0,0,1-3,3.72A12.09,12.09,0,0,1,205.61,60.65Zm5.11-41.2V17.23h5.43v2.22h14.27a5.86,5.86,0,0,1,4.4,1.5A5.67,5.67,0,0,1,236.29,25V36.1a6.7,6.7,0,0,1-1.47,4.7,3.48,3.48,0,0,1-1.57,1.09,12.52,12.52,0,0,1-3.36.33h-5.82V54q0,6.22-5.94,6.41l-2.68.09V55l1.65-.06a1,1,0,0,0,1-.83,10.61,10.61,0,0,0,.18-2.3V42.25l-7,0a5.28,5.28,0,0,1-4.19-1.57c-.81-1-1.21-2.57-1.21-4.81V25.47a6.82,6.82,0,0,1,.68-3.51A5.15,5.15,0,0,1,210.72,19.45Zm.74,8.53h19.25l.06-1a1.91,1.91,0,0,0-.38-1.3,2.22,2.22,0,0,0-1.92-.77H213.7c-1.49,0-2.24.5-2.24,1.51Zm19.25,5.47H211.46v1.41a2.29,2.29,0,0,0,.44,1.6,2.28,2.28,0,0,0,1.63.47h15.18c1.39,0,2.07-.82,2-2.45Zm-2.09,11h5.49l.8,8.42a3.71,3.71,0,0,0,.53,1.77,1.53,1.53,0,0,0,1,.35l0,5.56q-6.31-.78-6.88-6.44Z"/><path class="cls-1" d="M242.35,60.29V56.16a1.3,1.3,0,0,0,.89-.51,9,9,0,0,0,.14-1.62V28.25h4.17V54.18C247.55,58,245.81,60,242.35,60.29Zm.53-44.65V10.17H263v5.47Zm0,8.71V18.89H263v5.46h-7.23V60.41h-5.47V24.35Zm15.56,35.7V28.34H263V60.05Zm7.54.36V55h12.78V21.66H266V16.2h12.78V10.26h5.47V16.2h12.79v5.46H284.26V55h12.79v5.46Z"/><path class="cls-1" d="M121.3,65h2.25V78.86l8.12-7.07H135l-9.62,8.35,10.18,9.16h-3.17l-8.82-7.88V89.3H121.3Z"/><path class="cls-1" d="M155.3,71.79V89.3h-2.22v-3a9.55,9.55,0,0,1-3.18,2.59,8.86,8.86,0,0,1-10.2-1.83,9,9,0,0,1-2.63-6.55A8.91,8.91,0,0,1,139.72,74a8.67,8.67,0,0,1,6.39-2.69,8.32,8.32,0,0,1,3.91.92A8.91,8.91,0,0,1,153.08,75V71.79Zm-9,1.72a6.85,6.85,0,0,0-6,3.52,7.17,7.17,0,0,0,0,7.08,6.91,6.91,0,0,0,2.55,2.62,6.64,6.64,0,0,0,3.43.94,7.09,7.09,0,0,0,3.51-.93,6.48,6.48,0,0,0,2.54-2.52,7.16,7.16,0,0,0,.89-3.59,7,7,0,0,0-2-5.08A6.61,6.61,0,0,0,146.3,73.51Z"/><path class="cls-1" d="M161.15,64.58a1.8,1.8,0,0,1,1.31.55,1.84,1.84,0,0,1,.55,1.32,1.79,1.79,0,0,1-.55,1.3,1.82,1.82,0,0,1-2.61,0,1.78,1.78,0,0,1-.54-1.3,1.83,1.83,0,0,1,.54-1.32A1.79,1.79,0,0,1,161.15,64.58ZM160,71.79h2.25V89.3H160Z"/><path class="cls-1" d="M165.08,71.79h2.38l6,13.48,5.84-13.48h2.4L171.28,95.7H168.9L172.27,88Z"/><path class="cls-1" d="M184.34,71.79h2.26V80a17.13,17.13,0,0,0,.32,4.11,4.6,4.6,0,0,0,1.84,2.55,5.62,5.62,0,0,0,3.25.93,5.46,5.46,0,0,0,3.2-.91A4.62,4.62,0,0,0,197,84.26a16.59,16.59,0,0,0,.34-4.29V71.79h2.3v8.59a13.66,13.66,0,0,1-.84,5.46,6.46,6.46,0,0,1-2.55,2.87,9.24,9.24,0,0,1-8.52,0,6.34,6.34,0,0,1-2.56-2.9,14,14,0,0,1-.85-5.59Z"/><path class="cls-1" d="M222.11,71.79V89.3h-2.22v-3a9.75,9.75,0,0,1-3.18,2.59,8.86,8.86,0,0,1-10.2-1.83,9,9,0,0,1-2.63-6.55A8.87,8.87,0,0,1,206.53,74a8.67,8.67,0,0,1,6.39-2.69,8.25,8.25,0,0,1,3.9.92A8.94,8.94,0,0,1,219.89,75V71.79Zm-9,1.72a6.82,6.82,0,0,0-6,3.52,7.1,7.1,0,0,0,0,7.08,6.83,6.83,0,0,0,2.55,2.62,6.61,6.61,0,0,0,3.43.94,7,7,0,0,0,3.5-.93,6.51,6.51,0,0,0,2.55-2.52,7.27,7.27,0,0,0,.89-3.59,7,7,0,0,0-2-5.08A6.63,6.63,0,0,0,213.1,73.51Z"/><path class="cls-1" d="M227.18,71.79h2.25v3.14a9.53,9.53,0,0,1,3-2.7,7.41,7.41,0,0,1,3.57-.89,6.2,6.2,0,0,1,3.49,1A5.9,5.9,0,0,1,241.72,75a14.22,14.22,0,0,1,.73,5.26v9h-2.26V81a20.31,20.31,0,0,0-.25-4,4.46,4.46,0,0,0-1.5-2.62,4.57,4.57,0,0,0-2.9-.87,5.57,5.57,0,0,0-3.66,1.35,6.28,6.28,0,0,0-2.13,3.34,23.73,23.73,0,0,0-.32,4.77V89.3h-2.25Z"/><path class="cls-1" d="M256.07,73.71l-1.45,1.49a5.18,5.18,0,0,0-3.53-1.75,2.68,2.68,0,0,0-1.88.72,2.26,2.26,0,0,0-.78,1.69,2.48,2.48,0,0,0,.65,1.63,9.22,9.22,0,0,0,2.7,1.85,10,10,0,0,1,3.42,2.51,4.57,4.57,0,0,1,.89,2.75,4.94,4.94,0,0,1-1.52,3.65,5.16,5.16,0,0,1-3.78,1.5,6.58,6.58,0,0,1-2.89-.66,6.29,6.29,0,0,1-2.28-1.82L247,85.66a4.92,4.92,0,0,0,3.66,2,3.3,3.3,0,0,0,2.31-.87,2.7,2.7,0,0,0,.95-2,2.64,2.64,0,0,0-.63-1.73,10.1,10.1,0,0,0-2.84-1.86,9.06,9.06,0,0,1-3.22-2.42A4.53,4.53,0,0,1,246.4,76a4.43,4.43,0,0,1,1.37-3.32,4.72,4.72,0,0,1,3.44-1.32A7.11,7.11,0,0,1,256.07,73.71Z"/><path class="cls-1" d="M260.06,65h2.26v9.9a9.67,9.67,0,0,1,3-2.7,7.43,7.43,0,0,1,3.56-.89,6.2,6.2,0,0,1,3.49,1A5.93,5.93,0,0,1,274.61,75a14.28,14.28,0,0,1,.72,5.27v9h-2.25V81a21.42,21.42,0,0,0-.24-4,4.64,4.64,0,0,0-1.52-2.62,4.54,4.54,0,0,0-2.89-.87,5.57,5.57,0,0,0-3.66,1.35,6.28,6.28,0,0,0-2.13,3.34,22.85,22.85,0,0,0-.32,4.77V89.3h-2.26Z"/><path class="cls-1" d="M294.9,83.49l1.9,1a10.26,10.26,0,0,1-2.16,3,8.68,8.68,0,0,1-2.75,1.71,9.67,9.67,0,0,1-3.47.59,8.38,8.38,0,0,1-6.7-2.81,9.47,9.47,0,0,1-2.41-6.35,9.34,9.34,0,0,1,2-5.93,8.36,8.36,0,0,1,6.94-3.32,8.64,8.64,0,0,1,7.16,3.4,9.5,9.5,0,0,1,1.93,6H281.62a7.19,7.19,0,0,0,1.95,5,6.23,6.23,0,0,0,4.66,2,7.46,7.46,0,0,0,2.6-.46A6.74,6.74,0,0,0,293,86,10.56,10.56,0,0,0,294.9,83.49Zm0-4.72a7.55,7.55,0,0,0-1.31-2.88,6.38,6.38,0,0,0-2.28-1.73,7,7,0,0,0-3-.66,6.42,6.42,0,0,0-4.43,1.65,7.48,7.48,0,0,0-2,3.62Z"/></g></g></svg>