<?xml version="1.0" encoding="utf-8"?>
<!-- Generator: Adobe Illustrator 24.0.0, SVG Export Plug-In . SVG Version: 6.00 Build 0)  -->
<svg version="1.1" id="图层_1" xmlns="http://www.w3.org/2000/svg" xmlns:xlink="http://www.w3.org/1999/xlink" x="0px" y="0px"
	 viewBox="0 0 300 150" style="enable-background:new 0 0 300 150;" xml:space="preserve">
<style type="text/css">
	.st0{fill:#003764;}
	.st1{fill:#009ADE;}
	.st2{fill:#595757;}
</style>
<title>tars-foundation-color.svg</title>
<g>
	<polygon class="st0" points="116.6,1.7 133.3,1.7 133.3,3.4 125.9,3.4 125.9,22.8 123.9,22.8 123.9,3.4 116.6,3.4 	"/>
	<polygon class="st0" points="135.3,1.7 137.3,1.7 137.3,10.8 149.8,10.8 149.8,1.7 151.8,1.7 151.8,22.8 149.8,22.8 149.8,12.5 
		137.3,12.5 137.3,22.8 135.3,22.8 	"/>
	<polygon class="st0" points="156,1.7 170.6,1.7 170.6,3.4 158.1,3.4 158.1,11 169.8,11 169.8,12.7 158.1,12.7 158.1,21 170.7,21 
		170.7,22.8 156,22.8 	"/>
	<polygon class="st0" points="116.6,75.1 129.9,75.1 129.9,76.8 118.6,76.8 118.6,84.4 128.7,84.4 128.7,86.1 118.6,86.1 
		118.6,96.1 116.6,96.1 	"/>
	<g>
		<path class="st0" d="M141.2,74.6c6.6,0,9.9,5.2,9.9,11c0,5.8-3.3,11-9.9,11c-6.6,0-9.9-5.2-9.9-11
			C131.3,79.8,134.6,74.6,141.2,74.6 M141.2,94.9c5.5,0,7.9-4.7,7.9-9.3c0-4.6-2.4-9.3-7.9-9.3c-5.6,0-7.9,4.7-7.9,9.3
			C133.3,90.2,135.7,94.9,141.2,94.9"/>
		<path class="st0" d="M154.1,75.1h2v13c0,4.9,2.3,6.8,6.2,6.8c3.9,0,6.2-1.9,6.2-6.8v-13h2v13.5c0,4.3-2.3,8-8.2,8
			c-5.8,0-8.2-3.7-8.2-8V75.1z"/>
		<polygon class="st0" points="174.5,75.1 176.7,75.1 189,92.9 189.1,92.9 189.1,75.1 191.1,75.1 191.1,96.1 188.8,96.1 176.6,78.3 
			176.5,78.3 176.5,96.1 174.5,96.1 		"/>
		<path class="st0" d="M195.3,75.1h7.3c6.4,0.1,9.7,3.6,9.7,10.5c0,7-3.3,10.4-9.7,10.5h-7.3V75.1z M197.3,94.4h4.3
			c6.1,0,8.7-2.5,8.7-8.8c0-6.3-2.6-8.8-8.7-8.8h-4.3V94.4z"/>
		<path class="st0" d="M221.7,75.1h2.2l8.3,21.1h-2.2l-2.6-6.6h-9.6l-2.5,6.6h-2.2L221.7,75.1z M218.5,87.9h8.3l-4.1-10.8
			L218.5,87.9z"/>
		<polygon class="st0" points="229.9,75.1 246.6,75.1 246.6,76.8 239.2,76.8 239.2,96.1 237.2,96.1 237.2,76.8 229.9,76.8 		"/>
		<rect x="248.7" y="75.1" class="st0" width="2" height="21.1"/>
		<path class="st0" d="M263.9,74.6c6.6,0,9.9,5.2,9.9,11c0,5.8-3.3,11-9.9,11c-6.6,0-9.9-5.2-9.9-11C254,79.8,257.3,74.6,263.9,74.6
			 M263.9,94.9c5.6,0,7.9-4.7,7.9-9.3c0-4.6-2.4-9.3-7.9-9.3c-5.6,0-7.9,4.7-7.9,9.3C256,90.2,258.4,94.9,263.9,94.9"/>
		<polygon class="st0" points="277,75.1 279.2,75.1 291.5,92.9 291.5,92.9 291.5,75.1 293.6,75.1 293.6,96.1 291.3,96.1 279,78.3 
			279,78.3 279,96.1 277,96.1 		"/>
		<polygon class="st0" points="116.6,29 128.2,29 128.2,57.1 144.9,57.1 144.9,66.7 116.6,66.7 		"/>
		<rect x="152.5" y="29" class="st0" width="11.6" height="37.7"/>
		<polygon class="st0" points="172.8,29 184.7,29 195.6,49.2 195.7,49.2 195.7,29 206.7,29 206.7,66.7 195.4,66.7 183.9,46.1 
			183.8,46.1 183.8,66.7 172.8,66.7 		"/>
		<path class="st0" d="M249.7,52.2c0,10.5-5.5,15.5-17.2,15.5c-11.6,0-17.2-5-17.2-15.5V29h11.6v20.5c0,3.8-0.1,8.7,5.7,8.7
			c5.5,0,5.5-4.9,5.5-8.7V29h11.6V52.2z"/>
		<polygon class="st0" points="268.2,46.7 255.7,29 269.4,29 275.1,39.3 280.7,29 293.6,29 281.5,46.8 294.9,66.7 280.9,66.7 
			274.5,55.5 267.8,66.7 254.5,66.7 		"/>
		<polygon class="st1" points="24.3,77.2 24.3,39.3 5.3,39.3 5.3,96.1 62.2,96.1 62.2,77.2 		"/>
		<polygon class="st0" points="100.1,1.3 5.3,1.3 5.3,29.8 24.3,29.8 24.3,20.4 81.2,20.4 81.2,77.2 71.7,77.2 71.7,96.1 
			100.1,96.1 		"/>
	</g>
	<g>
		<path class="st2" d="M45.6,106.4v2.6h-8.5v14h11.1v2.6H37.1v22.2h-2.7v-22.2H19.3c-0.4,5.2-1.3,9.5-2.8,12.9
			c-1.9,4-4.9,7.3-9.2,9.6l-1.5-2.3c4-2.3,7-5.4,8.7-9.3c1.1-3,1.9-6.6,2.2-10.9H4.8v-2.6h11.9c0-0.8,0-1.5,0-2.2V109H7.5v-2.6H45.6
			z M19.5,120.9c0,0.7,0,1.5,0,2.2h15v-14h-15V120.9z"/>
		<path class="st2" d="M64.1,123.8l-1.8,1.8c-2-2.3-4.8-4.8-8.3-7.4l1.8-1.7C59.1,118.9,61.9,121.3,64.1,123.8z M64.6,130.6
			c-2.3,6.2-4.8,12.1-7.6,17.5l-2.5-1.1c3-5.6,5.6-11.5,7.8-17.4L64.6,130.6z M65.6,112l-1.8,1.8c-2.2-2.4-5.1-5-8.9-7.7l1.8-1.7
			C60.3,106.9,63.2,109.4,65.6,112z M82.5,113.2c0.7-1.7,1.2-3.5,1.5-5.3H71v15.5c-0.2,10.3-2,18.6-5.6,24.8l-2-1.8
			c3.2-5.5,4.9-13.2,5-23v-17.9h29.2v2.4H86.5c-0.4,1.8-0.9,3.6-1.6,5.3h10V130h-8.5v14.6c0,2.4-1.2,3.6-3.5,3.6h-4.1l-0.5-2.5
			c1.3,0.1,2.6,0.2,3.8,0.2c1.2,0,1.8-0.6,1.8-1.9v-14h-8.8v-16.8H82.5z M79.2,134.4c-1.3,4.4-3.2,8.2-5.6,11.4l-2.2-1.4
			c2.4-3.1,4.1-6.6,5.3-10.5L79.2,134.4z M92.5,120.5v-5.2h-15v5.2H92.5z M92.5,122.7h-15v5.1h15V122.7z M98.2,144.7l-2.3,1
			c-1.7-4.2-3.6-8-5.5-11.3l2.3-0.7C94.8,137.1,96.6,140.8,98.2,144.7z"/>
		<path class="st2" d="M117.2,116.9v7.8h6.7v2.4h-6.7v7.5c2.6-0.5,5-1,7.3-1.6v2.5c-2.3,0.6-4.7,1.2-7.3,1.7v11.1h-2.6v-10.6
			c-3.4,0.6-6.9,1.1-10.6,1.6l-0.3-2.7c3.9-0.4,7.6-0.9,11-1.5v-8h-9.5l-0.6-2.4c1.6-3.1,3-7,4.3-11.7h-5v-2.7h5.8
			c0.6-2.3,1.1-4.7,1.6-7.2l2.6,0.4c-0.5,2.4-1,4.6-1.5,6.8h12.3v2.7h-13c-1.3,4.4-2.7,8.3-4.1,11.7h7.3v-7.8H117.2z M136.6,117.3
			c0,3.4-0.2,6.5-0.5,9.2c2.4,8.2,6.5,14.7,12.2,19.5l-1.9,2.2c-4.9-4.5-8.6-10.1-11-16.8c-0.2,0.8-0.3,1.6-0.5,2.4
			c-1.6,5.9-5.2,10.8-10.6,14.5l-1.8-2.2c4.8-3.3,8-7.5,9.6-12.6c1.3-4.3,1.9-9.7,1.9-16.2H136.6z M132.5,103.4
			c-0.3,2.9-0.8,5.5-1.3,7.9h15.6v1.7c-0.9,4.3-2.1,8.5-3.6,12.6l-2.7-0.7c1.4-3.4,2.6-7.1,3.5-11.1h-13.4c-1.2,3.9-2.7,7.2-4.5,9.8
			l-2.2-1.5c3.2-4.6,5.1-11,6-19.1L132.5,103.4z"/>
		<path class="st2" d="M166.3,104.1c-1.3,4-3,7.8-4.9,11.2v33h-2.6v-28.8c-1.8,2.5-3.7,4.9-5.8,7.2l-0.9-2.8
			c5.4-6.2,9.4-13.1,11.8-20.9L166.3,104.1z M174.7,106.4c-0.5,2.7-1.1,5.1-1.8,7.5h8.3v-10.6h2.7v10.6h11.7v2.7h-11.7v12.8h13.5
			v2.6h-13.5v16.1h-2.7V132h-15v-2.6h15v-12.8H172c-1.3,3.3-2.8,6.2-4.6,8.8l-1.7-2.2c3.1-4.7,5.2-10.4,6.4-17.1L174.7,106.4z"/>
		<path class="st2" d="M238,121.1v2.4c-3.4,2.2-7.2,4.3-11.4,6.3v3.1h19.2v2.6h-19.2v8.9c0,2.5-1.3,3.8-3.8,3.8h-6.2l-0.7-2.5
			c1.8,0.1,3.8,0.1,6,0.1c1.4,0,2.1-0.7,2.1-2.2v-8h-20.4v-2.6h20.4v-4.4c4.6-2.1,8-3.8,10.1-5h-22.7v-2.4H238z M245.1,123.9h-2.7
			v-7.8h-35.7v7.8h-2.7v-10.4h28.2c2.3-3.3,4.3-6.8,5.9-10.6l2.7,1c-1.8,3.8-3.7,7-5.7,9.6h9.9V123.9z M215.5,111.6l-2.4,1.1
			c-1.7-3-3.4-5.6-5.3-7.9l2.4-1.1C212.1,106,213.9,108.7,215.5,111.6z M227,111l-2.4,1.2c-1.5-3.1-3.1-5.9-4.7-8.2l2.5-1.2
			C224,105.3,225.6,108,227,111z"/>
		<path class="st2" d="M294,148.3h-2.7v-2.2H257v2.2h-2.7v-42.6H294V148.3z M291.3,143.7v-35.5H257v35.5H291.3z M287.2,121.9v2.4
			H279v10.9c0,1.3,0.6,2,1.8,2h2.3c0.8,0,1.3-0.1,1.7-0.4c0.6-0.4,1-2.3,1.2-5.5l2.3,0.7c-0.3,3.6-0.8,5.7-1.5,6.5
			c-0.6,0.6-1.7,0.9-3.2,0.9h-3.6c-1.1,0-2-0.3-2.6-1c-0.6-0.7-0.9-1.6-0.9-2.7v-11.4h-5.4c-0.4,4.1-1.4,7.4-2.9,9.7
			c-1.7,2.5-4.2,4.4-7.7,5.9l-1.2-2.2c3.1-1.3,5.4-3,6.9-5.2c1.3-2,2.1-4.7,2.5-8.2h-7.6v-2.4H287.2z M284.4,113.5v2.4h-20.5v-2.4
			H284.4z"/>
	</g>
</g>
</svg>
