<?xml version="1.0" encoding="utf-8"?>
<!-- Svg Vector Icons : http://www.onlinewebfonts.com/icon -->
<!DOCTYPE svg PUBLIC "-//W3C//DTD SVG 1.1//EN" "http://www.w3.org/Graphics/SVG/1.1/DTD/svg11.dtd">
<svg version="1.1" xmlns="http://www.w3.org/2000/svg" xmlns:xlink="http://www.w3.org/1999/xlink" x="0px" y="0px" viewBox="0 0 1000 1000" enable-background="new 0 0 1000 1000" xml:space="preserve">
<metadata> Svg Vector Icons : http://www.onlinewebfonts.com/icon </metadata>
<g><path d="M555.4,529.9c0,15.2,12.1,27.4,26.9,27.4c14.9,0,27-12.3,27-27.4l0,0c0-15.2-12.1-27.4-27-27.4C567.4,502.4,555.4,514.7,555.4,529.9z"/><path d="M717.1,529.9c0,15.2,12.1,27.4,26.9,27.4c14.9,0,27-12.3,27-27.4l0,0c0-15.2-12.1-27.4-27-27.4C729.1,502.4,717.1,514.7,717.1,529.9z"/><path d="M379.5,202.6c-141.6,0-256.8,97.5-256.8,217.6c0,68.6,37.2,134.3,95.6,174c2.9,2,18.6,9.3,17.1,19.1c-2,22-8.8,37.2-8.8,37.2s18.1-21.1,31.4-30.9c5.9-4.4,17.2-1,20.1,0c30.9,11.3,65.2,17.6,100.9,17.6c14.2,0,28.4-1,42.1-2.9c-1-7.8-1.5-15.7-1.5-23.5c0-107.8,93.1-197.5,214.6-214.1C620.5,287.3,511.8,202.6,379.5,202.6z M271.2,366.2c-22.5,0-40.7-18.1-40.7-40.7c0-22.5,18.1-40.7,40.7-40.7c22.5,0,40.7,18.1,40.7,40.7C311.8,348.1,293.7,366.2,271.2,366.2z M487.8,366.2c-22.5,0-40.7-18.1-40.7-40.7c0-22.5,18.1-40.7,40.7-40.7c22.5,0,40.7,18.1,40.7,40.7C527.9,348.1,509.8,366.2,487.8,366.2z"/><path d="M843,10H157C76.1,10,10,76.1,10,157v686c0,80.8,66.1,147,147,147h686c80.8,0,147-66.2,147-147V157C990,76.1,923.8,10,843,10z M827.3,786.6c-12.2,7.4,26,70.1,12.7,75.5c-4.4,2-21.6-10.8-38.7-23.5c-17.1-12.3-33.8-25-38.2-23.5c-27,8.3-55.9,12.7-86.2,12.7c-110.7,0-204.8-59.3-241.1-142.1c-18.1,2.9-37.2,4.4-56.3,4.4c-38.2,0-75-5.9-108.8-17.1c-8.3-2.9-27.9,11.8-47,26.5c-20.1,15.2-39.7,29.9-48,26c-9.3-4.9,27.9-82.3,19.1-88.2C118.3,587.7,68.8,508.3,68.8,419.1c0-149.4,139.2-271,310.7-271c161.7,0,294.5,107.8,309.2,245.5c136.2,5.4,244.5,100.4,244.5,217.1C933.2,682.8,891.5,747,827.3,786.6z"/></g>
</svg>